<svg xmlns="http://www.w3.org/2000/svg" xmlns:xlink="http://www.w3.org/1999/xlink" width="1080" height="1920" viewBox="0 0 1080 1920" role="img" aria-labelledby="title description">
  <title id="title">fomo campus — fastest onboards story template, lavender</title>
  <desc id="description">Five chapters and their time to onboard, each time in an outlined tag. Lavender colorway. 9:16 story; 1080 × 1920. The same pattern is available in six colorways and both formats.</desc>
  <metadata>Editable Aeonik text. Replace every bracketed placeholder before publishing. Counts, rates, totals, eligibility terms, and context must be supplied for the current campaign. School and chapter logos are paired placeholders, not invented marks. The campus mark and fomo wordmark paths are unchanged from the masters. Gradients and glows apply only to the background. Keep essential content inside the 72 px side margins; story quiet zones are 250 px at the top and 340 px at the bottom.</metadata>
  <defs>
    <style>text{font-family:Aeonik,Arial,sans-serif}</style>
    
    <symbol id="fomo-wordmark" viewBox="0 0 352 113"><path d="M0.00343295 23.3247C0.00343295 8.4677 7.99097 0 24.9229 0H42.1053C42.6746 0 43.1341 0.459567 43.1341 1.02888V18.4616C43.1341 19.0309 42.6746 19.4904 42.1053 19.4904H28.7572C24.4428 19.4904 22.5256 21.4076 22.5256 25.5608V28.6852C22.5256 29.2545 22.9852 29.7141 23.5545 29.7141H41.0764C41.6457 29.7141 42.1053 30.1737 42.1053 30.743V48.0145C42.1053 48.5838 41.6457 49.0434 41.0764 49.0434H23.5545C22.9852 49.0434 22.5256 49.5029 22.5256 50.0722V110.797C22.5256 111.366 22.0661 111.826 21.4968 111.826H1.02888C0.459567 111.826 0 111.366 0 110.797V23.3247H0.00343295Z" fill="currentColor"/>
<path d="M41.3813 70.7694C41.3813 45.5275 58.6357 28.7567 84.6733 28.7567C110.711 28.7567 127.965 45.5309 127.965 70.7694C127.965 96.0078 110.711 112.782 84.6733 112.782C58.6357 112.782 41.3813 96.0078 41.3813 70.7694ZM104.959 70.7694C104.959 57.1916 97.2908 47.6058 84.6698 47.6058C72.0489 47.6058 64.3837 57.1916 64.3837 70.7694C64.3837 84.3472 72.0523 93.9329 84.6698 93.9329C97.2873 93.9329 104.959 84.3472 104.959 70.7694Z" fill="currentColor"/>
<path d="M260.369 65.9782V110.796C260.369 111.366 259.909 111.825 259.34 111.825H238.872C238.302 111.825 237.843 111.366 237.843 110.796V65.817C237.843 53.9952 233.371 47.767 223.785 47.767C214.199 47.767 207.491 54.7943 207.81 67.4152V110.796C207.81 111.366 207.35 111.825 206.781 111.825H186.313C185.744 111.825 185.284 111.366 185.284 110.796V65.817C185.284 53.9952 180.812 47.767 171.065 47.767C161.318 47.767 155.251 55.1167 155.251 66.6161V110.796C155.251 111.366 154.792 111.825 154.222 111.825H133.754C133.185 111.825 132.725 111.366 132.725 110.796V30.7459C132.725 30.1766 133.185 29.717 133.754 29.717H151.571C152.044 29.717 152.456 30.0394 152.569 30.4955L154.088 36.5796C154.246 37.2107 155.028 37.4473 155.501 37.0015C160.183 32.615 166.476 28.7567 177.451 28.7567C186.961 28.7567 195.882 31.7027 201.246 40.2836C201.565 40.7912 202.281 40.8358 202.652 40.3625C208.307 33.1363 217.317 28.7567 229.687 28.7567C245.662 28.7567 260.358 37.0632 260.358 65.9782H260.369Z" fill="currentColor"/>
<path d="M265.029 70.7694C265.029 45.5275 282.284 28.7567 308.321 28.7567C334.359 28.7567 351.613 45.5309 351.613 70.7694C351.613 96.0078 334.359 112.782 308.321 112.782C282.284 112.782 265.029 96.0078 265.029 70.7694ZM328.607 70.7694C328.607 57.1916 320.939 47.6058 308.318 47.6058C295.697 47.6058 288.032 57.1916 288.032 70.7694C288.032 84.3472 295.7 93.9329 308.318 93.9329C320.935 93.9329 328.607 84.3472 328.607 70.7694Z" fill="currentColor"/></symbol>
    
    <radialGradient id="glow" cx="0.5" cy="0.05" r="0.6"><stop stop-color="#FFFFFF" stop-opacity="0.4"/><stop offset="1" stop-color="#FFFFFF" stop-opacity="0"/></radialGradient>
  </defs>
  <g id="background"><rect width="1080" height="1920" fill="#EAEDFF"/><rect width="1080" height="1920" fill="url(#glow)"/></g>
  <g id="brand" color="#0B091F">
    <use href="#fomo-wordmark" xlink:href="#fomo-wordmark" x="362" y="280" width="149.522" height="48"/>
    <text x="525" y="327" font-size="48" fill="#0B091F" font-weight="500">/campus</text>
  </g>
  <g id="editable-headline">
      <text x="540" y="418" font-size="32" fill="#0B091F" font-weight="500" text-anchor="middle" letter-spacing="10">THIS WEEK’S</text>
      <text x="540" y="548" font-size="128" fill="#0B091F" font-weight="700" text-anchor="middle" letter-spacing="-5">Fastest</text>
      <text x="215" y="680" font-size="128" fill="#0B091F" font-weight="700" letter-spacing="-5">Onboards</text>
      <g id="series-icon" fill="#516AF6" transform="translate(789 588) scale(1.2778)"><path d="M36 0L6 42H28L22 72L54 28H32Z"/></g>
    </g><g id="editable-column-labels">
      <text x="72" y="770" font-size="32" fill="#0B091F" font-weight="400">chapter</text>
      <text x="1008" y="770" font-size="32" fill="#0B091F" font-weight="400" text-anchor="end">time to onboard</text>
    </g><g id="editable-chapter-rows">
      <g id="onboard-1">
        
        <g id="replace-onboard-1-school-logo"><rect x="72" y="812" width="96" height="96" rx="2" fill="none" stroke="#0B091F" stroke-opacity=".45"/>
          <text x="120" y="856" font-size="18" fill="#0B091F" font-weight="400" text-anchor="middle">[school</text><text x="120" y="880" font-size="18" fill="#0B091F" font-weight="400" text-anchor="middle">logo]</text></g>
        <text x="196" y="854" font-size="32" fill="#0B091F" font-weight="500" letter-spacing="3">[SCHOOL NAME]</text>
        <text x="196" y="900" font-size="44" fill="#0B091F" font-weight="700">[CHAPTER NAME]</text>
        <rect x="788" y="824" width="220" height="72" rx="36" fill="#0B091F" fill-opacity="0.05" stroke="#0B091F" stroke-opacity=".5" stroke-width="2"/>
        <text x="898" y="875" font-size="44" fill="#0B091F" font-weight="700" text-anchor="middle" letter-spacing="-1">[time]</text>
      </g>
      <g id="onboard-2">
        <path d="M72 928 H1008" fill="none" stroke="#0B091F" stroke-opacity=".25" stroke-width="1.5"/>
        <g id="replace-onboard-2-school-logo"><rect x="72" y="948" width="96" height="96" rx="2" fill="none" stroke="#0B091F" stroke-opacity=".45"/>
          <text x="120" y="992" font-size="18" fill="#0B091F" font-weight="400" text-anchor="middle">[school</text><text x="120" y="1016" font-size="18" fill="#0B091F" font-weight="400" text-anchor="middle">logo]</text></g>
        <text x="196" y="990" font-size="32" fill="#0B091F" font-weight="500" letter-spacing="3">[SCHOOL NAME]</text>
        <text x="196" y="1036" font-size="44" fill="#0B091F" font-weight="700">[CHAPTER NAME]</text>
        <rect x="788" y="960" width="220" height="72" rx="36" fill="#0B091F" fill-opacity="0" stroke="#0B091F" stroke-opacity=".5" stroke-width="2"/>
        <text x="898" y="1011" font-size="44" fill="#0B091F" font-weight="700" text-anchor="middle" letter-spacing="-1">[time]</text>
      </g>
      <g id="onboard-3">
        <path d="M72 1064 H1008" fill="none" stroke="#0B091F" stroke-opacity=".25" stroke-width="1.5"/>
        <g id="replace-onboard-3-school-logo"><rect x="72" y="1084" width="96" height="96" rx="2" fill="none" stroke="#0B091F" stroke-opacity=".45"/>
          <text x="120" y="1128" font-size="18" fill="#0B091F" font-weight="400" text-anchor="middle">[school</text><text x="120" y="1152" font-size="18" fill="#0B091F" font-weight="400" text-anchor="middle">logo]</text></g>
        <text x="196" y="1126" font-size="32" fill="#0B091F" font-weight="500" letter-spacing="3">[SCHOOL NAME]</text>
        <text x="196" y="1172" font-size="44" fill="#0B091F" font-weight="700">[CHAPTER NAME]</text>
        <rect x="788" y="1096" width="220" height="72" rx="36" fill="#0B091F" fill-opacity="0" stroke="#0B091F" stroke-opacity=".5" stroke-width="2"/>
        <text x="898" y="1147" font-size="44" fill="#0B091F" font-weight="700" text-anchor="middle" letter-spacing="-1">[time]</text>
      </g>
      <g id="onboard-4">
        <path d="M72 1200 H1008" fill="none" stroke="#0B091F" stroke-opacity=".25" stroke-width="1.5"/>
        <g id="replace-onboard-4-school-logo"><rect x="72" y="1220" width="96" height="96" rx="2" fill="none" stroke="#0B091F" stroke-opacity=".45"/>
          <text x="120" y="1264" font-size="18" fill="#0B091F" font-weight="400" text-anchor="middle">[school</text><text x="120" y="1288" font-size="18" fill="#0B091F" font-weight="400" text-anchor="middle">logo]</text></g>
        <text x="196" y="1262" font-size="32" fill="#0B091F" font-weight="500" letter-spacing="3">[SCHOOL NAME]</text>
        <text x="196" y="1308" font-size="44" fill="#0B091F" font-weight="700">[CHAPTER NAME]</text>
        <rect x="788" y="1232" width="220" height="72" rx="36" fill="#0B091F" fill-opacity="0" stroke="#0B091F" stroke-opacity=".5" stroke-width="2"/>
        <text x="898" y="1283" font-size="44" fill="#0B091F" font-weight="700" text-anchor="middle" letter-spacing="-1">[time]</text>
      </g>
      <g id="onboard-5">
        <path d="M72 1336 H1008" fill="none" stroke="#0B091F" stroke-opacity=".25" stroke-width="1.5"/>
        <g id="replace-onboard-5-school-logo"><rect x="72" y="1356" width="96" height="96" rx="2" fill="none" stroke="#0B091F" stroke-opacity=".45"/>
          <text x="120" y="1400" font-size="18" fill="#0B091F" font-weight="400" text-anchor="middle">[school</text><text x="120" y="1424" font-size="18" fill="#0B091F" font-weight="400" text-anchor="middle">logo]</text></g>
        <text x="196" y="1398" font-size="32" fill="#0B091F" font-weight="500" letter-spacing="3">[SCHOOL NAME]</text>
        <text x="196" y="1444" font-size="44" fill="#0B091F" font-weight="700">[CHAPTER NAME]</text>
        <rect x="788" y="1368" width="220" height="72" rx="36" fill="#0B091F" fill-opacity="0" stroke="#0B091F" stroke-opacity=".5" stroke-width="2"/>
        <text x="898" y="1419" font-size="44" fill="#0B091F" font-weight="700" text-anchor="middle" letter-spacing="-1">[time]</text>
      </g>
    </g><g id="editable-closer">
      <text x="540" y="1554" font-size="52" fill="#0B091F" font-weight="700" text-anchor="middle" letter-spacing="-1">dm “fomo” to onboard yours.</text>
    </g>
  
</svg>
